<svg xmlns="http://www.w3.org/2000/svg" width="150" height="150">

 <metadata id="metadata3828">image/svg+xml</metadata>
 <g>
  <title>background</title>
  <rect fill="none" id="canvas_background" height="1286.51969" width="795.700787" y="-1" x="-1"/>
 </g>
 <g>
  <g id="layer1">
   <rect fill="#000000" stroke="#000000" stroke-width="1.539948" stroke-linejoin="round" stroke-miterlimit="4" id="rect4074" y="144.11288" x="15.51295" height="7.46777" width="121.48705"/>
   <path fill="#ffffff" stroke="#000000" stroke-width="7.102" stroke-linejoin="round" stroke-miterlimit="4" id="path4006" d="m73.439117,54.565002a21.977779,18.465839 0 0 1 -43.955551,0a21.977779,18.465839 0 1 1 43.955551,0z"/>
   <path fill="#000000" stroke="#000000" stroke-width="7.101867" stroke-linejoin="round" stroke-miterlimit="4" id="path4017" d="m59.833832,54.565002a8.11085,7.38634 0 1 1 -16.221695,0a8.11085,7.38634 0 1 1 16.221695,0z"/>
   <path fill="#ffffff" stroke="#ffffff" stroke-width="7.101867" stroke-linejoin="round" stroke-miterlimit="4" id="path4019" d="m50.414474,53.179901a1.3082,1.84658 0 1 1 -2.616409,0a1.3082,1.84658 0 1 1 2.616409,0z"/>
   <path fill="#ffffff" stroke="#000000" stroke-width="7.101867" stroke-linejoin="round" stroke-miterlimit="4" id="path4028" d="m123.279114,54.565002a21.977779,18.465839 0 0 1 -43.955566,0a21.977779,18.465839 0 1 1 43.955566,0z"/>
   <path fill="#000000" stroke="#000000" stroke-width="7.101867" stroke-linejoin="round" stroke-miterlimit="4" id="path4030" d="m109.673828,54.565002a8.11085,7.38634 0 1 1 -16.221695,0a8.11085,7.38634 0 1 1 16.221695,0z"/>
   <path fill="#ffffff" stroke="#ffffff" stroke-width="7.101867" stroke-linejoin="round" stroke-miterlimit="4" id="path4032" d="m100.254456,53.179901a1.3082,1.84658 0 1 1 -2.616394,0a1.3082,1.84658 0 1 1 2.616394,0z"/>
   <path fill="#000000" stroke="#000000" stroke-width="4.316665" stroke-linejoin="round" stroke-miterlimit="4" id="path4036" d="m106.633057,96.076447c0,11.632385 -13.525421,49.836304 -30.209869,49.836304c-16.684464,0 -30.209869,-38.203918 -30.209869,-49.836304c0,-11.632355 13.525406,-21.062256 30.209869,-21.062256c16.684448,0 30.209869,9.429901 30.209869,21.062256z"/>
   <path fill="#ffffff" stroke="#ffffff" stroke-width="0.668196" stroke-linejoin="round" stroke-miterlimit="4" id="path4045" d="m86.878174,68.923889l-10.064041,0l-10.064026,0l5.032028,5.282593l5.031998,5.282623l5.032013,-5.282623l5.032028,-5.282593z"/>
   <path fill="#000000" stroke="#000000" stroke-width="1.638888" stroke-linejoin="round" stroke-miterlimit="4" id="rect4049" d="m95.833557,34.132233l47.095245,-12.551575c3.324707,16.475311 -31.556458,15.974731 -47.618515,15.974731l0.52327,-3.423157z"/>
   <path fill="#000000" stroke="#000000" stroke-width="1.638888" stroke-linejoin="round" stroke-miterlimit="4" id="path4052" d="m56.764038,34.132233l-47.09523,-12.551575c-3.324722,16.475311 31.556427,15.974731 47.618515,15.974731l-0.523285,-3.423157z"/>
   <path fill="#ffa500" id="path4076" d="m61.123016,143.964203a3.20386,2.82649 0 0 1 -6.407715,0a3.20386,2.82649 0 1 1 6.407715,0z"/>
   <path fill="#ffa500" id="path4078" d="m67.530716,143.964203a3.20386,2.82649 0 0 1 -6.4077,0a3.20386,2.82649 0 1 1 6.4077,0z"/>
   <path fill="#ffa500" id="path4080" d="m73.938446,143.964203a3.20386,2.82649 0 0 1 -6.407715,0a3.20386,2.82649 0 1 1 6.407715,0z"/>
   <path fill="#ffa500" id="path4082" d="m88.035416,143.964203a3.20386,2.82649 0 0 1 -6.4077,0a3.20386,2.82649 0 1 1 6.4077,0z"/>
   <path fill="#ffa500" id="path4084" d="m94.44313,143.964203a3.20386,2.82649 0 0 1 -6.407715,0a3.20386,2.82649 0 1 1 6.407715,0z"/>
   <path fill="#ffa500" id="path4086" d="m100.85083,143.964203a3.20386,2.82649 0 0 1 -6.407715,0a3.20386,2.82649 0 1 1 6.407715,0z"/>
   <path fill="#ffa500" fill-rule="nonzero" stroke-width="1px" id="path3427" d="m76.245392,60.892151c-1.694351,2.286316 -2.700546,5.14743 -4.773834,7.27182c-1.26622,0.90332 -3.871185,-0.467743 -4.978195,0.881134c3.09761,3.770874 6.612381,7.457916 10.202469,10.73175c2.098434,-1.128143 3.572006,-3.474731 5.382751,-5.089966c1.644653,-1.895386 3.723541,-3.589355 5.044937,-5.664307c-1.198761,-1.143005 -3.382797,-0.262085 -4.921066,-0.664398c-2.547607,-0.865906 -3.299881,-4.028931 -4.703964,-6.056976c-0.380829,-0.43161 -0.563522,-1.43811 -1.253098,-1.409058z"/>
   <path fill="#ff00ff" fill-opacity="0" stroke="#000000" stroke-width="2.563899" stroke-miterlimit="4" d="m48.742569,76.29361c-6.417892,-0.756256 -12.743423,-3.73468 -16.718826,-7.872192c-6.533035,-6.799377 -7.632248,-15.966919 -2.875565,-23.982391c0.749847,-1.26358 2.462967,-3.334869 3.806946,-4.602905c1.343964,-1.268005 2.2332,-2.305511 1.976074,-2.305511c-1.087646,0 -6.791489,-0.801666 -9.29332,-1.306152c-11.111893,-2.240753 -16.726837,-6.430786 -16.726837,-12.482056c0,-1.166168 0.156082,-2.276398 0.346848,-2.467163c0.221786,-0.221802 8.411484,1.785156 22.713608,5.566132c12.301697,3.252136 23.910065,6.272003 25.796341,6.710846c1.886292,0.438812 4.810471,1.467926 6.498199,2.286896c5.408707,2.624573 10.678833,8.728912 11.733139,13.590393l0.270874,1.249054l0.793747,-2.192078c1.62413,-4.485443 4.256332,-7.885132 8.390808,-10.837311c2.790222,-1.992371 5.575302,-3.134949 10.514618,-4.31366c2.121017,-0.506165 13.589066,-3.513916 25.484573,-6.683899c16.896881,-4.502747 21.693329,-5.660919 21.925873,-5.294281c0.163727,0.258118 0.300171,1.371552 0.303223,2.474243c0.015991,5.821228 -5.559357,10.079376 -16.059448,12.265259c-2.830444,0.589233 -8.586304,1.433777 -9.771637,1.433777c-0.222382,0 0.910553,1.341156 2.517609,2.980316c3.339172,3.405945 4.991333,6.358765 5.864594,10.481354c1.785919,8.431458 -3.072571,17.578339 -11.704071,22.034668c-8.118408,4.191467 -17.140991,4.402649 -25.173645,0.589264c-4.174377,-1.98172 -4.059189,-1.846619 -2.885971,-3.384796c0.550598,-0.721863 0.897812,-1.415771 0.771591,-1.541992c-0.126205,-0.126221 -1.426605,-0.327423 -2.88974,-0.447083c-1.46315,-0.11969 -2.934479,-0.44519 -3.269653,-0.723358c-0.892914,-0.741028 -3.511475,-5.3367 -4.230789,-7.425171c-0.349396,-1.014465 -0.632797,-1.46759 -0.647018,-1.034607c-0.0354,1.076904 -2.65271,6.174255 -4.006866,7.803558c-1.016708,1.223297 -1.293762,1.35379 -2.87442,1.35379c-2.961792,0 -3.532288,0.534729 -2.145432,2.010956l0.74588,0.793976l-1.102524,0.785065c-1.724014,1.2276 -6.112442,3.113251 -8.692505,3.735016c-2.524338,0.608368 -7.334808,0.993774 -9.386276,0.752045l0,0zm7.905396,-7.364868c5.75322,-1.379181 9.969666,-4.516113 12.092972,-8.996857c0.980957,-2.070129 1.120773,-2.748901 1.120773,-5.441345c0,-2.737823 -0.128403,-3.337006 -1.167374,-5.447449c-2.853821,-5.796936 -9.515808,-9.44635 -17.244186,-9.44635c-7.727692,0 -14.390396,3.649475 -17.243607,9.44519c-1.038208,2.108917 -1.16687,2.70929 -1.167374,5.447449c-0.000504,2.694397 0.138901,3.371674 1.120209,5.442505c2.092117,4.414917 6.326126,7.603516 11.92186,8.978241c3.703156,0.90979 6.826324,0.915283 10.566727,0.018616l0,0zm49.772995,0.011108c4.996918,-1.197968 8.782776,-3.58255 11.006378,-6.932556c6.835724,-10.298462 -1.891327,-22.393646 -16.157684,-22.393646c-13.151215,0 -22.018829,10.584717 -17.165451,20.489319c2.10463,4.295074 6.358917,7.471283 11.796539,8.807159c3.690994,0.906769 6.824844,0.915619 10.520218,0.029694l0,0l0,0.000031z" id="path3782"/>
  </g>
 </g>
</svg>